PathFileType  4	(X/Y/Z) C:\Users\antoi\Documents\MyRepositories\mobilecap\ResultsAnalysis
DataRate	CameraRate	NumFrames	NumMarkers	Units	OrigDataRate	OrigDataStartFrame	OrigNumFrames
100.0	100.0	4	51	mm	100.0	116	184
Frame#	Time	r_knee			r_shank_antsup			r_ankle			r_calc			r_5meta			r_toe			L_knee			L_shank_antsup			L_ankle			L_calc			L_5meta			L_toe			r_sh2			r_sh3			r_sh4			L_sh2			L_sh3			r_thigh1			r_thigh2			r_thigh3			r_thigh4			r_thigh5			L_thigh1			L_thigh2			L_thigh3			L_thigh4			r.ASIS			r.PSIS			L.ASIS			L.PSIS			C7			R_Shoulder			L_Shoulder			R_Sternum			L_Sternum			R_humerus			R_elbow_med			R_elbow_lat			R_forearm			R_wrist_radius			R_wrist_ulna			L_humerus			L_elbow_med			L_elbow_lat			L_forearm			L_wrist_radius			L_wrist_ulna			R_HJC			L_HJC			R_HJC_reg			L_HJC_reg			
		X1	Y1	Z1	X2	Y2	Z2	X3	Y3	Z3	X4	Y4	Z4	X5	Y5	Z5	X6	Y6	Z6	X7	Y7	Z7	X8	Y8	Z8	X9	Y9	Z9	X10	Y10	Z10	X11	Y11	Z11	X12	Y12	Z12	X13	Y13	Z13	X14	Y14	Z14	X15	Y15	Z15	X16	Y16	Z16	X17	Y17	Z17	X18	Y18	Z18	X19	Y19	Z19	X20	Y20	Z20	X21	Y21	Z21	X22	Y22	Z22	X23	Y23	Z23	X24	Y24	Z24	X25	Y25	Z25	X26	Y26	Z26	X27	Y27	Z27	X28	Y28	Z28	X29	Y29	Z29	X30	Y30	Z30	X31	Y31	Z31	X32	Y32	Z32	X33	Y33	Z33	X34	Y34	Z34	X35	Y35	Z35	X36	Y36	Z36	X37	Y37	Z37	X38	Y38	Z38	X39	Y39	Z39	X40	Y40	Z40	X41	Y41	Z41	X42	Y42	Z42	X43	Y43	Z43	X44	Y44	Z44	X45	Y45	Z45	X46	Y46	Z46	X47	Y47	Z47	X48	Y48	Z48	X49	Y49	Z49	X50	Y50	Z50	X51	Y51	Z51	

116	1.15000000	960.31702	624.42993	-27.29616	905.37910	482.46652	-34.54732	636.32776	235.85846	-79.69676	594.22116	243.08030	-157.86970	697.43098	110.25556	-23.03950	756.73391	105.87488	-60.22084	909.89916	608.99392	-356.81136	943.45086	412.48155	-319.91361	849.90376	114.62576	-316.26391	785.24715	86.43960	-259.34613	989.33974	34.80558	-342.66724	1027.35709	60.18012	-280.19717	836.58544	393.94926	-50.14702	845.56696	522.25060	-10.37552	771.89299	437.19492	-18.16258	887.40071	418.86312	-385.78535	870.77462	303.93254	-365.13602	959.58672	911.65395	-9.00867	989.75704	804.77569	-0.42284	932.41502	767.10374	-2.55013	854.54727	882.76782	-48.36933	885.96916	769.60649	-35.16715	893.76484	912.84403	-391.58614	881.36722	776.97383	-391.36002	999.21525	898.53013	-365.62696	982.71020	763.23735	-360.27832	972.03944	1205.90816	-70.84206	805.01680	1224.42909	-186.58059	1013.99608	1163.86867	-344.44826	818.54852	1220.07463	-277.30378	922.36488	1668.12989	-398.16883	977.96613	1684.22542	-208.19711	996.88514	1557.92525	-537.10859	1045.95351	1585.02014	-323.68619	1051.35521	1566.43444	-376.43131	867.05812	1475.55847	-59.72744	742.50297	1396.95106	-74.03840	760.55442	1434.18448	-11.90085	784.94020	1239.47990	82.11025	785.15686	1149.29752	112.84847	754.33868	1161.84322	130.33315	1014.43351	1256.95960	-517.35810	926.20402	1187.75623	-460.87694	951.35339	1168.34679	-529.86892	1060.11139	993.38909	-509.66364	1100.18664	928.43070	-485.16799	1072.58359	918.64185	-506.14414	900.03729	1106.37848	-106.98282	920.83886	1083.27720	-301.99639	912.41219	1102.32668	-114.79561	939.63757	1093.56561	-297.35412	
117	1.16000000	973.54147	625.68651	-28.32841	921.68916	482.54307	-34.64037	658.84956	228.67416	-77.20957	616.18172	233.65467	-155.38863	724.26066	105.68965	-19.74263	783.61407	103.10142	-57.08589	914.01675	609.52375	-356.97402	946.21283	412.66948	-320.01790	850.54162	115.49950	-316.16562	785.87102	87.45233	-259.07570	989.44242	34.84231	-342.62245	1027.58252	59.99476	-280.17706	855.12945	392.35475	-49.34806	860.89464	521.05920	-10.54457	789.38624	434.17085	-17.61109	890.18857	419.44715	-385.79873	872.74486	304.68258	-365.05153	969.79321	912.83173	-9.82021	1001.03142	806.38122	-1.68952	944.12100	768.02978	-3.29746	864.87233	882.95100	-48.64729	897.33120	770.28327	-35.43077	899.80873	913.57415	-391.85351	886.60319	777.70852	-391.53447	1005.51841	898.56297	-366.31190	988.01504	763.33761	-361.00791	979.25924	1206.27150	-71.19568	812.43895	1224.87312	-187.20632	1021.83318	1164.11438	-344.73649	826.25654	1220.58511	-277.97101	930.86885	1668.96659	-397.78109	986.12426	1684.55377	-207.74088	1005.42831	1558.95714	-536.80354	1054.15023	1585.45022	-323.27042	1059.62858	1566.96201	-376.03223	875.53272	1475.43495	-59.58235	751.06434	1396.59978	-74.01494	769.05567	1433.76812	-11.84434	794.34936	1239.04509	81.86395	794.94315	1148.80177	112.39572	764.46299	1161.25372	129.97794	1023.85572	1258.03945	-517.74381	935.66006	1188.31370	-461.65278	961.22305	1169.18826	-530.63718	1070.94096	994.83658	-510.21579	1111.28695	930.10701	-485.67096	1083.89114	920.20649	-506.80656	907.25887	1106.78148	-107.46297	928.45588	1083.64461	-302.42996	919.66394	1102.53653	-115.40711	947.44294	1093.91448	-297.91798	
118	1.17000000	986.56885	626.90690	-29.54084	938.01273	482.57765	-34.93351	681.90679	221.31813	-74.85139	638.82394	223.99138	-152.99915	751.63593	101.16533	-16.62194	810.97950	100.36777	-54.17014	918.13166	610.05801	-357.15417	948.97263	412.88717	-320.18121	851.18192	116.39119	-316.11907	786.51301	88.51136	-258.84294	989.53970	34.86594	-342.58871	1027.80724	59.82017	-280.17000	873.84810	390.70967	-48.73935	876.22157	519.70837	-10.81701	807.06618	430.94030	-17.16095	892.94081	420.04377	-385.86163	874.66946	305.45579	-365.01347	979.86788	913.98892	-10.75452	1012.13879	807.88680	-3.04346	955.63774	768.95999	-4.21707	875.12883	883.14577	-49.04281	908.47725	770.99465	-35.83319	905.87053	914.26316	-392.17403	891.86721	778.43243	-391.76196	1011.76960	898.57662	-366.92804	993.25908	763.44307	-361.62184	986.48344	1206.63049	-71.56618	819.77501	1225.30806	-187.76089	1029.60568	1164.33714	-345.03312	833.94290	1221.07446	-278.61365	939.31653	1669.84260	-397.29963	994.16682	1684.88277	-207.18706	1013.93863	1560.08451	-536.39841	1062.25413	1585.91019	-322.75705	1067.84323	1567.54308	-375.53207	883.93109	1475.31708	-59.32890	759.59974	1396.19945	-73.90002	777.50768	1433.31718	-11.68394	803.79890	1238.55425	81.66720	804.84140	1148.23329	111.94959	774.73901	1160.59172	129.65863	1033.21540	1259.22806	-518.00256	944.99908	1189.00617	-462.41378	970.97829	1170.16555	-531.38227	1081.56321	996.36623	-510.76614	1122.13691	931.84369	-486.20061	1094.93014	921.83201	-507.47846	914.46896	1107.17713	-107.91955	936.01348	1083.99312	-302.84318	926.83656	1102.74051	-116.07671	955.27876	1094.23898	-298.51058	
119	1.18000000	999.39057	628.06518	-30.92338	954.36385	482.57628	-35.42915	705.47827	213.85915	-72.64918	662.12016	214.16876	-150.70777	779.52065	96.74907	-13.71366	838.78085	97.72809	-51.51735	922.25418	610.59472	-357.35530	951.76155	413.13929	-320.39161	851.83439	117.29650	-316.13826	787.15007	89.64413	-258.67771	989.62698	34.87873	-342.56521	1028.02407	59.65500	-280.16634	892.72764	389.01160	-48.35015	891.57224	518.18123	-11.19382	824.94396	427.50657	-16.80633	895.66881	420.64747	-385.97628	876.56426	306.24251	-365.02902	989.82420	915.09991	-11.78977	1023.09751	809.30624	-4.48454	966.96474	769.87326	-5.29605	885.28976	883.33808	-49.53577	919.43689	771.69155	-36.38534	911.98085	914.91784	-392.56963	897.18005	779.12510	-392.04627	1017.96549	898.56696	-367.45131	998.48698	763.56888	-362.08335	993.71928	1206.96524	-71.95507	827.05997	1225.72742	-188.25848	1037.30281	1164.53232	-345.35006	841.60888	1221.54332	-279.22269	947.71283	1670.73607	-396.73334	1002.10701	1685.19734	-206.53721	1022.42400	1561.29029	-535.90819	1070.29278	1586.39501	-322.14576	1076.00933	1568.16208	-374.93810	892.25420	1475.17457	-58.99457	768.12546	1395.72355	-73.72551	785.90961	1432.81509	-11.44366	813.27595	1238.00068	81.51955	814.83768	1147.60646	111.53240	785.07855	1159.84212	129.37841	1042.48546	1260.50175	-518.15477	954.21278	1189.81298	-463.16339	980.61233	1171.25401	-532.10863	1091.97630	997.96377	-511.32073	1132.74693	933.62622	-486.75721	1105.70320	923.50436	-508.15724	921.67418	1107.55126	-108.36290	943.50797	1084.31888	-303.24887	933.95430	1102.92421	-116.78938	963.11082	1094.53627	-299.12994	
